<mxfile host="www.draw.io" modified="2019-12-07T10:10:35.572Z" agent="Mozilla/5.0 (Windows NT 10.0; Win64; x64) AppleWebKit/537.36 (KHTML, like Gecko) Chrome/78.0.3904.108 Safari/537.36" etag="daCduuhU0RsKBSyXYwZx" version="12.3.8" type="github" pages="1">
  <diagram id="2eqxVx8vLgW72r-5ruSU" name="Page-1">
    <mxGraphModel dx="868" dy="450" grid="1" gridSize="10" guides="1" tooltips="1" connect="1" arrows="1" fold="1" page="1" pageScale="1" pageWidth="3300" pageHeight="4681" math="0" shadow="0">
      <root>
        <mxCell id="0"/>
        <mxCell id="1" parent="0"/>
        <mxCell id="Ev0kxqudqVE_jrWVeriW-1" value="Quản trị viên" style="shape=umlActor;verticalLabelPosition=bottom;labelBackgroundColor=#ffffff;verticalAlign=top;html=1;outlineConnect=0;" parent="1" vertex="1">
          <mxGeometry x="170" y="370" width="30" height="60" as="geometry"/>
        </mxCell>
        <mxCell id="Ev0kxqudqVE_jrWVeriW-2" value="" style="endArrow=none;html=1;entryX=0.067;entryY=0.783;entryDx=0;entryDy=0;entryPerimeter=0;" parent="1" target="Ev0kxqudqVE_jrWVeriW-5" edge="1">
          <mxGeometry width="50" height="50" relative="1" as="geometry">
            <mxPoint x="220" y="410" as="sourcePoint"/>
            <mxPoint x="400" y="330" as="targetPoint"/>
          </mxGeometry>
        </mxCell>
        <mxCell id="Ev0kxqudqVE_jrWVeriW-3" value="" style="endArrow=none;html=1;entryX=0;entryY=0.5;entryDx=0;entryDy=0;" parent="1" target="Ev0kxqudqVE_jrWVeriW-6" edge="1">
          <mxGeometry width="50" height="50" relative="1" as="geometry">
            <mxPoint x="220" y="410" as="sourcePoint"/>
            <mxPoint x="430" y="410" as="targetPoint"/>
          </mxGeometry>
        </mxCell>
        <mxCell id="Ev0kxqudqVE_jrWVeriW-4" value="" style="endArrow=none;html=1;entryX=0;entryY=0.5;entryDx=0;entryDy=0;" parent="1" edge="1" target="Ev0kxqudqVE_jrWVeriW-7">
          <mxGeometry width="50" height="50" relative="1" as="geometry">
            <mxPoint x="220" y="410" as="sourcePoint"/>
            <mxPoint x="410" y="460" as="targetPoint"/>
          </mxGeometry>
        </mxCell>
        <mxCell id="Ev0kxqudqVE_jrWVeriW-5" value="Tìm kiếm khóa học" style="ellipse;whiteSpace=wrap;html=1;" parent="1" vertex="1">
          <mxGeometry x="380" y="237.5" width="120" height="60" as="geometry"/>
        </mxCell>
        <mxCell id="Ev0kxqudqVE_jrWVeriW-6" value="Tra cứu khóa học" style="ellipse;whiteSpace=wrap;html=1;" parent="1" vertex="1">
          <mxGeometry x="417.5" y="310" width="120" height="60" as="geometry"/>
        </mxCell>
        <mxCell id="Ev0kxqudqVE_jrWVeriW-7" value="Đăng ký khóa học" style="ellipse;whiteSpace=wrap;html=1;" parent="1" vertex="1">
          <mxGeometry x="440" y="390" width="120" height="60" as="geometry"/>
        </mxCell>
        <mxCell id="Ev0kxqudqVE_jrWVeriW-19" value="&amp;lt;&amp;lt;extend&amp;gt;&amp;gt;" style="endArrow=block;dashed=1;endFill=0;endSize=12;html=1;entryX=0.958;entryY=0.767;entryDx=0;entryDy=0;entryPerimeter=0;exitX=0;exitY=0.5;exitDx=0;exitDy=0;" parent="1" target="Ev0kxqudqVE_jrWVeriW-7" edge="1" source="Ev0kxqudqVE_jrWVeriW-33">
          <mxGeometry width="160" relative="1" as="geometry">
            <mxPoint x="580" y="520" as="sourcePoint"/>
            <mxPoint x="482" y="470" as="targetPoint"/>
          </mxGeometry>
        </mxCell>
        <mxCell id="Ev0kxqudqVE_jrWVeriW-20" value="&amp;lt;&amp;lt;extend&amp;gt;&amp;gt;" style="endArrow=block;dashed=1;endFill=0;endSize=12;html=1;entryX=1;entryY=0.5;entryDx=0;entryDy=0;exitX=0;exitY=0.5;exitDx=0;exitDy=0;" parent="1" source="Ev0kxqudqVE_jrWVeriW-34" target="Ev0kxqudqVE_jrWVeriW-7" edge="1">
          <mxGeometry width="160" relative="1" as="geometry">
            <mxPoint x="630" y="460" as="sourcePoint"/>
            <mxPoint x="492.03999999999996" y="471" as="targetPoint"/>
          </mxGeometry>
        </mxCell>
        <mxCell id="Ev0kxqudqVE_jrWVeriW-22" value="a" style="endArrow=block;dashed=1;endFill=0;endSize=12;html=1;entryX=1;entryY=0.5;entryDx=0;entryDy=0;exitX=0;exitY=0.5;exitDx=0;exitDy=0;" parent="1" source="Ev0kxqudqVE_jrWVeriW-36" target="Ev0kxqudqVE_jrWVeriW-6" edge="1">
          <mxGeometry width="160" relative="1" as="geometry">
            <mxPoint x="640" y="390" as="sourcePoint"/>
            <mxPoint x="486" y="430" as="targetPoint"/>
          </mxGeometry>
        </mxCell>
        <mxCell id="Ev0kxqudqVE_jrWVeriW-33" value="Khóa tính phí" style="ellipse;whiteSpace=wrap;html=1;" parent="1" vertex="1">
          <mxGeometry x="606" y="460" width="67" height="35" as="geometry"/>
        </mxCell>
        <mxCell id="Ev0kxqudqVE_jrWVeriW-34" value="Khóa free" style="ellipse;whiteSpace=wrap;html=1;" parent="1" vertex="1">
          <mxGeometry x="639.5" y="360" width="73" height="30" as="geometry"/>
        </mxCell>
        <mxCell id="Ev0kxqudqVE_jrWVeriW-36" value="Kiểm tra tình trạng khóa học" style="ellipse;whiteSpace=wrap;html=1;" parent="1" vertex="1">
          <mxGeometry x="603.5" y="270" width="128" height="55" as="geometry"/>
        </mxCell>
        <mxCell id="Ev0kxqudqVE_jrWVeriW-44" value="Xem bài giảng" style="ellipse;whiteSpace=wrap;html=1;" parent="1" vertex="1">
          <mxGeometry x="275" y="590" width="120" height="45" as="geometry"/>
        </mxCell>
        <mxCell id="Ev0kxqudqVE_jrWVeriW-45" value="" style="endArrow=none;html=1;entryX=0.042;entryY=0.35;entryDx=0;entryDy=0;entryPerimeter=0;" parent="1" target="Ev0kxqudqVE_jrWVeriW-44" edge="1">
          <mxGeometry width="50" height="50" relative="1" as="geometry">
            <mxPoint x="220" y="410" as="sourcePoint"/>
            <mxPoint x="420" y="470" as="targetPoint"/>
          </mxGeometry>
        </mxCell>
        <mxCell id="Ev0kxqudqVE_jrWVeriW-46" value="" style="endArrow=none;html=1;entryX=0.025;entryY=0.65;entryDx=0;entryDy=0;entryPerimeter=0;" parent="1" target="Ev0kxqudqVE_jrWVeriW-47" edge="1">
          <mxGeometry width="50" height="50" relative="1" as="geometry">
            <mxPoint x="220" y="410" as="sourcePoint"/>
            <mxPoint x="330" y="260" as="targetPoint"/>
          </mxGeometry>
        </mxCell>
        <mxCell id="Ev0kxqudqVE_jrWVeriW-47" value="Làm bài&amp;nbsp; kiểm tra đánh giá năng lực đầu vào" style="ellipse;whiteSpace=wrap;html=1;" parent="1" vertex="1">
          <mxGeometry x="320" y="165" width="120" height="60" as="geometry"/>
        </mxCell>
        <mxCell id="Ev0kxqudqVE_jrWVeriW-49" value="&amp;lt;&amp;lt;include&amp;gt;&amp;gt;" style="endArrow=block;dashed=1;endFill=0;endSize=12;html=1;exitX=1;exitY=0.5;exitDx=0;exitDy=0;" parent="1" source="Ev0kxqudqVE_jrWVeriW-33" edge="1">
          <mxGeometry width="160" relative="1" as="geometry">
            <mxPoint x="613.5" y="535" as="sourcePoint"/>
            <mxPoint x="730" y="490" as="targetPoint"/>
          </mxGeometry>
        </mxCell>
        <mxCell id="Ev0kxqudqVE_jrWVeriW-50" value="Thanh toán" style="ellipse;whiteSpace=wrap;html=1;" parent="1" vertex="1">
          <mxGeometry x="724.5" y="465" width="67" height="35" as="geometry"/>
        </mxCell>
        <mxCell id="Ev0kxqudqVE_jrWVeriW-51" value="" style="endArrow=classic;html=1;entryX=1.008;entryY=0.356;entryDx=0;entryDy=0;entryPerimeter=0;" parent="1" target="Ev0kxqudqVE_jrWVeriW-44" edge="1">
          <mxGeometry width="50" height="50" relative="1" as="geometry">
            <mxPoint x="640" y="604" as="sourcePoint"/>
            <mxPoint x="516" y="550" as="targetPoint"/>
          </mxGeometry>
        </mxCell>
        <mxCell id="Ev0kxqudqVE_jrWVeriW-52" value="" style="endArrow=classic;html=1;exitX=0;exitY=0.5;exitDx=0;exitDy=0;" parent="1" edge="1" source="Ev0kxqudqVE_jrWVeriW-54">
          <mxGeometry width="50" height="50" relative="1" as="geometry">
            <mxPoint x="620" y="670" as="sourcePoint"/>
            <mxPoint x="390" y="624" as="targetPoint"/>
          </mxGeometry>
        </mxCell>
        <mxCell id="Ev0kxqudqVE_jrWVeriW-53" value="Bài giảng tài liệu" style="ellipse;whiteSpace=wrap;html=1;" parent="1" vertex="1">
          <mxGeometry x="613.5" y="577.5" width="123" height="70" as="geometry"/>
        </mxCell>
        <mxCell id="Ev0kxqudqVE_jrWVeriW-54" value="Bài giảng tương tác trực tuyến" style="ellipse;whiteSpace=wrap;html=1;" parent="1" vertex="1">
          <mxGeometry x="573.5" y="670" width="153" height="65" as="geometry"/>
        </mxCell>
        <mxCell id="IC-gkR5cYKk0uxbwySmm-2" value="Học viên" style="shape=umlActor;verticalLabelPosition=bottom;labelBackgroundColor=#ffffff;verticalAlign=top;html=1;outlineConnect=0;" parent="1" vertex="1">
          <mxGeometry x="150" y="924" width="30" height="60" as="geometry"/>
        </mxCell>
        <mxCell id="IC-gkR5cYKk0uxbwySmm-3" value="" style="endArrow=none;html=1;entryX=0;entryY=0.5;entryDx=0;entryDy=0;" parent="1" edge="1">
          <mxGeometry width="50" height="50" relative="1" as="geometry">
            <mxPoint x="200" y="956" as="sourcePoint"/>
            <mxPoint x="329.99999999999886" y="955.9999999999998" as="targetPoint"/>
          </mxGeometry>
        </mxCell>
        <mxCell id="IC-gkR5cYKk0uxbwySmm-4" value="Làm bài&amp;nbsp; kiểm tra đánh giá năng lực đầu vào" style="ellipse;whiteSpace=wrap;html=1;" parent="1" vertex="1">
          <mxGeometry x="330" y="910" width="150" height="90" as="geometry"/>
        </mxCell>
        <mxCell id="IC-gkR5cYKk0uxbwySmm-5" value="&amp;lt;&amp;lt;extend&amp;gt;&amp;gt;" style="endArrow=block;dashed=1;endFill=0;endSize=12;html=1;entryX=1;entryY=0;entryDx=0;entryDy=0;" parent="1" target="IC-gkR5cYKk0uxbwySmm-4" edge="1">
          <mxGeometry width="160" relative="1" as="geometry">
            <mxPoint x="610" y="890" as="sourcePoint"/>
            <mxPoint x="512" y="930" as="targetPoint"/>
          </mxGeometry>
        </mxCell>
        <mxCell id="IC-gkR5cYKk0uxbwySmm-6" value="&amp;lt;&amp;lt;include&amp;gt;&amp;gt;" style="endArrow=block;dashed=1;endFill=0;endSize=12;html=1;exitX=1;exitY=1;exitDx=0;exitDy=0;" parent="1" source="IC-gkR5cYKk0uxbwySmm-4" edge="1">
          <mxGeometry width="160" relative="1" as="geometry">
            <mxPoint x="520" y="980" as="sourcePoint"/>
            <mxPoint x="620" y="1050" as="targetPoint"/>
          </mxGeometry>
        </mxCell>
        <mxCell id="IC-gkR5cYKk0uxbwySmm-8" value="Làm lại" style="ellipse;whiteSpace=wrap;html=1;" parent="1" vertex="1">
          <mxGeometry x="610" y="860" width="90" height="60" as="geometry"/>
        </mxCell>
        <mxCell id="IC-gkR5cYKk0uxbwySmm-9" value="&amp;lt;&amp;lt;extend&amp;gt;&amp;gt;" style="endArrow=block;dashed=1;endFill=0;endSize=12;html=1;" parent="1" edge="1">
          <mxGeometry width="160" relative="1" as="geometry">
            <mxPoint x="630" y="970" as="sourcePoint"/>
            <mxPoint x="480" y="960" as="targetPoint"/>
          </mxGeometry>
        </mxCell>
        <mxCell id="IC-gkR5cYKk0uxbwySmm-10" value="Làm bài khác" style="ellipse;whiteSpace=wrap;html=1;" parent="1" vertex="1">
          <mxGeometry x="630" y="940" width="90" height="60" as="geometry"/>
        </mxCell>
        <mxCell id="IC-gkR5cYKk0uxbwySmm-13" value="Xem kết quá" style="ellipse;whiteSpace=wrap;html=1;" parent="1" vertex="1">
          <mxGeometry x="617.5" y="1020" width="95" height="60" as="geometry"/>
        </mxCell>
        <mxCell id="IC-gkR5cYKk0uxbwySmm-14" value="&amp;lt;&amp;lt;extend&amp;gt;&amp;gt;" style="endArrow=block;dashed=1;endFill=0;endSize=12;html=1;exitX=0;exitY=0.5;exitDx=0;exitDy=0;" parent="1" source="IC-gkR5cYKk0uxbwySmm-15" edge="1">
          <mxGeometry width="160" relative="1" as="geometry">
            <mxPoint x="531.5" y="1122.9999999999998" as="sourcePoint"/>
            <mxPoint x="440" y="1000" as="targetPoint"/>
          </mxGeometry>
        </mxCell>
        <mxCell id="IC-gkR5cYKk0uxbwySmm-15" value="Xem các khoá học gửi ý" style="ellipse;whiteSpace=wrap;html=1;" parent="1" vertex="1">
          <mxGeometry x="537.5" y="1095" width="90" height="60" as="geometry"/>
        </mxCell>
        <mxCell id="IC-gkR5cYKk0uxbwySmm-16" value="&amp;lt;&amp;lt;extend&amp;gt;&amp;gt;" style="endArrow=block;dashed=1;endFill=0;endSize=12;html=1;entryX=0.583;entryY=0;entryDx=0;entryDy=0;entryPerimeter=0;" parent="1" target="IC-gkR5cYKk0uxbwySmm-4" edge="1">
          <mxGeometry width="160" relative="1" as="geometry">
            <mxPoint x="568.5" y="819.9999999999998" as="sourcePoint"/>
            <mxPoint x="421.3443703486746" y="868.9978576722183" as="targetPoint"/>
          </mxGeometry>
        </mxCell>
        <mxCell id="IC-gkR5cYKk0uxbwySmm-17" value="Đăng ký học" style="ellipse;whiteSpace=wrap;html=1;" parent="1" vertex="1">
          <mxGeometry x="568.5" y="790" width="90" height="60" as="geometry"/>
        </mxCell>
        <mxCell id="bOEacpObub4BD8qMVdAI-1" value="Học viên" style="shape=umlActor;verticalLabelPosition=bottom;labelBackgroundColor=#ffffff;verticalAlign=top;html=1;outlineConnect=0;" vertex="1" parent="1">
          <mxGeometry x="124" y="1374" width="30" height="60" as="geometry"/>
        </mxCell>
        <mxCell id="bOEacpObub4BD8qMVdAI-2" value="" style="endArrow=none;html=1;entryX=0;entryY=0.5;entryDx=0;entryDy=0;" edge="1" parent="1">
          <mxGeometry width="50" height="50" relative="1" as="geometry">
            <mxPoint x="174" y="1406" as="sourcePoint"/>
            <mxPoint x="303.99999999999886" y="1405.9999999999998" as="targetPoint"/>
          </mxGeometry>
        </mxCell>
        <mxCell id="bOEacpObub4BD8qMVdAI-3" value="Tìm kiếm" style="ellipse;whiteSpace=wrap;html=1;" vertex="1" parent="1">
          <mxGeometry x="245" y="1360" width="150" height="90" as="geometry"/>
        </mxCell>
        <mxCell id="bOEacpObub4BD8qMVdAI-12" value="&amp;lt;&amp;lt;extend&amp;gt;&amp;gt;" style="endArrow=block;dashed=1;endFill=0;endSize=12;html=1;entryX=1;entryY=0.5;entryDx=0;entryDy=0;exitX=0;exitY=0.5;exitDx=0;exitDy=0;" edge="1" parent="1" target="bOEacpObub4BD8qMVdAI-3" source="bOEacpObub4BD8qMVdAI-13">
          <mxGeometry width="160" relative="1" as="geometry">
            <mxPoint x="542.5" y="1269.9999999999998" as="sourcePoint"/>
            <mxPoint x="395.3443703486746" y="1318.9978576722183" as="targetPoint"/>
          </mxGeometry>
        </mxCell>
        <mxCell id="bOEacpObub4BD8qMVdAI-13" value="Lọc sau khi tìm kiếm bằng keyword (Advanced search)" style="ellipse;whiteSpace=wrap;html=1;" vertex="1" parent="1">
          <mxGeometry x="490" y="1349" width="160" height="110" as="geometry"/>
        </mxCell>
        <mxCell id="bOEacpObub4BD8qMVdAI-14" value="&amp;lt;&amp;lt;extend&amp;gt;&amp;gt;" style="endArrow=block;dashed=1;endFill=0;endSize=12;html=1;exitX=0;exitY=0.5;exitDx=0;exitDy=0;entryX=0.8;entryY=0.083;entryDx=0;entryDy=0;entryPerimeter=0;" edge="1" parent="1" source="bOEacpObub4BD8qMVdAI-15" target="Ev0kxqudqVE_jrWVeriW-5">
          <mxGeometry width="160" relative="1" as="geometry">
            <mxPoint x="541.5" y="235" as="sourcePoint"/>
            <mxPoint x="410" y="290" as="targetPoint"/>
          </mxGeometry>
        </mxCell>
        <mxCell id="bOEacpObub4BD8qMVdAI-15" value="Tìm kiếm nâng cao" style="ellipse;whiteSpace=wrap;html=1;" vertex="1" parent="1">
          <mxGeometry x="538.5" y="177.5" width="95" height="60" as="geometry"/>
        </mxCell>
      </root>
    </mxGraphModel>
  </diagram>
</mxfile>
